<?xml version="1.0" encoding="UTF-8" standalone="no" ?>
<!DOCTYPE svg PUBLIC "-//W3C//DTD SVG 1.1//EN" "http://www.w3.org/Graphics/SVG/1.1/DTD/svg11.dtd">
<svg xmlns="http://www.w3.org/2000/svg" xmlns:xlink="http://www.w3.org/1999/xlink" version="1.1" width="1280" height="1024" viewBox="0 0 1280 1024" xml:space="preserve">
<desc>Created with Fabric.js 5.3.0</desc>
<defs>
</defs>
<g transform="matrix(1 0 0 1 640 512)" id="background-logo"  >
<rect style="stroke: none; stroke-width: 0; stroke-dasharray: none; stroke-linecap: butt; stroke-dashoffset: 0; stroke-linejoin: miter; stroke-miterlimit: 4; fill: rgb(255,255,255); fill-opacity: 0; fill-rule: nonzero; opacity: 1;"  paint-order="stroke"  x="-640" y="-512" rx="0" ry="0" width="1280" height="1024" />
</g>
<g transform="matrix(1.9211538461538462 0 0 1.9211538461538462 640 407.9641127427218)" id="logo-logo"  >
<g style=""  paint-order="stroke"   >
		<g transform="matrix(0.26520217659829537 0 0 0.26520217659829537 -48.48834949876573 2.894243905330086)"  >
<g style=""  paint-order="stroke"   >
		<g transform="matrix(1 0 0 1 0 0)"  >
<linearGradient id="SVGID_2_44044" gradientUnits="userSpaceOnUse" gradientTransform="matrix(1 0 0 1 0.0000045640306467476 0)"  x1="60.499998128561" y1="0" x2="60.499998128561" y2="300">
<stop offset="36.00000000000001%" style="stop-color:rgb(253,189,75);stop-opacity: 1"/>
<stop offset="100%" style="stop-color:rgb(206,87,20);stop-opacity: 1"/>
</linearGradient>
<path style="stroke: none; stroke-width: 1; stroke-dasharray: none; stroke-linecap: butt; stroke-dashoffset: 0; stroke-linejoin: miter; stroke-miterlimit: 4; fill: url(#SVGID_2_44044); fill-rule: nonzero; opacity: 1;"  paint-order="stroke"  transform=" translate(-60.50000269259165, -150)" d="M 82.0976 88.46351 C 45.54856 45.8166 54.70095 0 54.70095 0 C 54.70095 0 11.24511 55.3257 41.7506 115.83822 C 61.088989999999995 154.19895 66.27533 174.01682 53.54982 179.8086 C 34.55588 188.4532 33.8452 150 33.8452 150 C -23.90419 206.22278 1.6129800000000003 279.22198000000003 40.9444 300 C 23.484840000000002 279.79831 15.04307 241.37766 42.21127 222.00578000000002 C 42.21127 222.00578000000002 40.96581 263.95495 50.81685 267.69632 C 60.66805 271.43778000000003 52.17573 240.14595000000003 52.17573 240.14595000000003 C 52.17573 240.14595000000003 65.40676 251.34004000000002 73.04756 268.20630000000006 C 72.31281 255.01698000000005 82.1632 236.82192000000006 95.33583 223.89627000000007 C 138.50398 181.53751 122.52364 135.63426 82.0976 88.46351 z" stroke-linecap="round" />
</g>
</g>
</g>
		<g transform="matrix(-0.26520217659829537 0 0 0.26520217659829537 48.48834949876573 2.894243905330086)"  >
<g style=""  paint-order="stroke"   >
		<g transform="matrix(1 0 0 1 0 0)"  >
<linearGradient id="SVGID_2_44045" gradientUnits="userSpaceOnUse" gradientTransform="matrix(1 0 0 1 0.0000045640306467476 0)"  x1="60.499998128561" y1="0" x2="60.499998128561" y2="300">
<stop offset="36.00000000000001%" style="stop-color:rgb(253,189,75);stop-opacity: 1"/>
<stop offset="100%" style="stop-color:rgb(206,87,20);stop-opacity: 1"/>
</linearGradient>
<path style="stroke: none; stroke-width: 1; stroke-dasharray: none; stroke-linecap: butt; stroke-dashoffset: 0; stroke-linejoin: miter; stroke-miterlimit: 4; fill: url(#SVGID_2_44045); fill-rule: nonzero; opacity: 1;"  paint-order="stroke"  transform=" translate(-60.50000269259165, -150)" d="M 82.0976 88.46351 C 45.54856 45.8166 54.70095 0 54.70095 0 C 54.70095 0 11.24511 55.3257 41.7506 115.83822 C 61.088989999999995 154.19895 66.27533 174.01682 53.54982 179.8086 C 34.55588 188.4532 33.8452 150 33.8452 150 C -23.90419 206.22278 1.6129800000000003 279.22198000000003 40.9444 300 C 23.484840000000002 279.79831 15.04307 241.37766 42.21127 222.00578000000002 C 42.21127 222.00578000000002 40.96581 263.95495 50.81685 267.69632 C 60.66805 271.43778000000003 52.17573 240.14595000000003 52.17573 240.14595000000003 C 52.17573 240.14595000000003 65.40676 251.34004000000002 73.04756 268.20630000000006 C 72.31281 255.01698000000005 82.1632 236.82192000000006 95.33583 223.89627000000007 C 138.50398 181.53751 122.52364 135.63426 82.0976 88.46351 z" stroke-linecap="round" />
</g>
</g>
</g>
		<g transform="matrix(1.3740754079655415 0 0 1.2525769011037626 -2.442835725190946 -28.30581226000865)"  >
<g style=""  paint-order="stroke"   >
		<g transform="matrix(1 0 0 1 0 0)"  >
<linearGradient id="SVGID_4_44046" gradientUnits="userSpaceOnUse" gradientTransform="matrix(1 0 0 1 0 0)"  x1="36.555892949999986" y1="0" x2="36.555892950000015" y2="99.99999855213105">
<stop offset="36.00000000000001%" style="stop-color:rgb(253,189,75);stop-opacity: 1"/>
<stop offset="100%" style="stop-color:rgb(206,87,20);stop-opacity: 1"/>
</linearGradient>
<path style="stroke: none; stroke-width: 1; stroke-dasharray: none; stroke-linecap: butt; stroke-dashoffset: 0; stroke-linejoin: miter; stroke-miterlimit: 4; fill: url(#SVGID_4_44046); fill-rule: nonzero; opacity: 1;"  paint-order="stroke"  transform=" translate(-36.55589295, -49.99999927606552)" d="M 64.381279 45.9054146 C 65.58712770000001 52.6268273 65.1250229 59.5424195 62.690532700000006 66.2947388 C 62.68915560000001 66.2985611 62.68775180000001 66.3023606 62.686340300000005 66.30616760000001 C 62.686340300000005 66.30616760000001 66.1614914 55.47974010000001 73.1117859 52.27191160000001 C 73.1117859 52.27191160000001 69.63664250000001 58.68757250000001 70.0376206 66.17250820000001 C 70.43859869999999 73.6574439 72.17617039999999 87.6916961 63.7556191 94.10736080000001 C 55.335063999999996 100.5230178 47.048171999999994 99.98838040000001 47.048171999999994 99.98950190000001 C 47.048171999999994 99.98950190000001 46.82250979999999 94.97328180000001 52.127235399999996 86.80142210000001 C 58.2755775 77.32998660000001 49.7213631 66.4198456 45.978893299999996 60.30537030000001 C 42.236427299999995 54.190895000000005 44.10766219999999 45.07912820000001 44.10766219999999 45.07912820000001 C 44.10766219999999 45.07912820000001 39.76372529999999 55.53967660000001 43.23887249999999 65.9702453 C 46.71402359999999 76.4008254 38.22664259999999 84.2220077 38.22664259999999 84.2220077 C 38.22664259999999 84.2220077 31.877813299999993 77.50807180000001 34.28368759999999 70.1946868 C 36.68955989999999 62.8812942 37.82566069999999 61.1446113 35.68710709999999 56.1091613 C 35.68710709999999 56.1091613 34.88515089999999 62.463417 30.875362399999993 67.73864739999999 C 26.865575799999995 73.01388539999999 17.375745799999994 82.12564839999999 30.875362399999993 99.99929039999999 C 23.4664288 99.231781 15.243948 95.3708954 9.9314718 89.8795471 C 3.2934487 83.018013 3.0363414 73.2789764 4.215457 64.3357697 C 4.7868881 60.0016518 3.8880036 52.1590385 0 49.3314018 C 0 49.3314018 9.8908091 57.2173156 11.0937452 65.6378708 C 11.0937452 65.6378708 8.955191600000001 51.4699516 16.4401283 40.9108467 C 23.925065000000004 30.3517418 23.7914047 23.8024216 23.7914047 23.8024216 C 23.7914047 23.8024216 22.4548092 41.8464623 30.4075546 48.395782499999996 C 30.4075546 48.395782499999996 25.395319 32.62395479999999 31.6773205 22.465824199999997 C 37.959322 12.3076936 43.4393578 6.4266806 42.503746 0.8129805 C 43.1330223 4.5886653 44.1790008 8.230276 44.4588089 12.064270800000001 C 44.7576141 16.1585386 44.6284981 20.30702 45.544376400000004 24.3337534 C 46.874313400000005 30.1809652 51.268978100000005 32.471740499999996 53.197258000000005 38.0539511 C 54.794700600000006 42.678416999999996 54.8665772 47.804683499999996 54.19896320000001 52.6115149 C 54.19896320000001 52.6115149 58.05561070000001 42.2032317 55.13458260000001 33.50365430000001 C 52.06041340000001 24.347972700000007 59.21119700000001 17.525876800000006 59.21119700000001 17.525876800000006 C 58.03417980000001 20.882036000000006 57.041858800000014 23.792875100000007 57.77423490000001 27.340741900000005 C 58.22705470000001 29.534313000000004 59.62793360000001 32.329879500000004 60.58667770000001 34.324325400000006 C 62.3868408 38.0691376 63.6723328 41.9537163 64.381279 45.9054146 z M 53.4952049 12.9733992 C 54.097477 8.3114796 51.3574944 2.2583637 46.6185379 0 C 52.299068399999996 11.4947233 43.3438759 16.6406174 51.7299347 29.5387669 C 51.3971519 23.5568676 52.7544518 18.7072353 53.4952049 12.9733992 z" stroke-linecap="round" />
</g>
</g>
</g>
		<g transform="matrix(0.7568858163985619 0 0 0.6212739459142765 0 65.63636359934907)"  >
<g style=""  paint-order="stroke"   >
		<g transform="matrix(1 0 0 1 0 0)"  >
<path style="stroke: none; stroke-width: 1; stroke-dasharray: none; stroke-linecap: butt; stroke-dashoffset: 0; stroke-linejoin: miter; stroke-miterlimit: 4; fill: rgb(107,73,61); fill-rule: nonzero; opacity: 1;"  paint-order="stroke"  transform=" translate(-125.00328943026074, -40.720029999999994)" d="M 13.35723 59.36011 C 13.2774 59.01001 13.79729 58.75 13.957329999999999 59.11011 C 14.237359999999999 59.74011 14.47735 60.480109999999996 14.787289999999999 61.1001 C 14.907289999999998 61.34009 15.097349999999999 62.010009999999994 15.537289999999999 61.87012 C 15.677299999999999 61.83008 15.907289999999998 61.17017 15.967339999999998 61.04004 C 16.557299999999998 59.740109999999994 16.877249999999997 58.31006 17.14727 56.92017 C 17.6773 54.15015 18.11724 51.34009 18.507379999999998 48.55005 C 18.937309999999997 45.55005 19.23736 42.4801 19.06732 39.45007 C 18.977349999999998 37.90013999999999 18.667299999999997 36.47009 17.92731 35.09008 C 17.67731 34.63012 17.417299999999997 34.180170000000004 17.23737 33.69006 C 17.18732 33.550050000000006 17.14728 33.40014 17.107239999999997 33.24011 C 16.577329999999996 35.290040000000005 16.797299999999996 37.75 16.857239999999997 39.74011 C 16.937319999999996 42.32007 17.197329999999997 44.870110000000004 16.947329999999997 47.430170000000004 C 16.917299999999997 47.810050000000004 16.337339999999998 47.950070000000004 16.23737 47.53002000000001 C 15.627259999999998 44.72008000000001 15.587349999999999 41.820060000000005 15.627259999999998 38.95006000000001 C 15.657289999999998 36.480090000000004 15.437319999999998 33.570060000000005 16.527409999999996 31.280020000000007 C 16.707339999999995 30.920160000000006 17.227359999999997 30.900140000000007 17.487369999999995 31.16015000000001 C 17.917299999999994 31.590080000000007 18.027409999999996 31.99011000000001 18.197329999999994 32.56005000000001 C 18.467349999999993 33.46007000000001 18.907289999999993 34.18017000000001 19.327329999999993 35.01000000000001 C 20.03728999999999 36.47008000000001 20.277399999999993 38.08007000000001 20.34734999999999 39.690050000000014 C 20.50737999999999 43.460070000000016 19.997369999999993 47.15013000000001 19.33733999999999 50.84007000000001 C 18.70733999999999 54.41014000000001 18.35723999999999 58.220070000000014 16.81731999999999 61.54002000000001 C 16.487359999999992 62.27000000000001 15.947329999999992 63.509990000000016 14.917299999999992 63.08006000000001 C 13.71734 62.59009 13.58733 60.40015 13.35723 59.36011 z M 17.29729 20.84009 C 18.76738 24.24011 20.33733 27.58008 21.37725 31.15015 C 22.40728 34.70008 23.06731 38.36011 23.33733 42.04004 C 23.597340000000003 45.7301 23.47734 49.45007 22.93731 53.1001 C 22.40728 56.68018 21.36724 60.1001 20.33733 63.55005 C 20.18731 64.02002 20.927300000000002 64.36010999999999 21.147270000000002 63.90015 C 24.237360000000002 57.19007 25.037280000000003 49.12012 24.50738 41.82007 C 23.987360000000002 34.55005 22.12725 26.530030000000004 17.90728 20.4801 C 17.64727 20.1001 17.11724 20.42017 17.29729 20.84009 z M 10.22735 65.32007 C 9.22735 63.56006 8.44732 61.660160000000005 8.08734 59.650150000000004 C 7.707329999999999 57.550050000000006 8.00738 55.600100000000005 8.47735 53.540040000000005 C 8.85723 51.860110000000006 8.987359999999999 50.33008 8.707329999999999 48.63013000000001 C 8.347339999999999 46.46009000000001 8.147269999999999 44.420170000000006 8.317319999999999 42.22010000000001 C 8.6673 37.67017000000001 9.35724 33.10010000000001 9.987359999999999 28.58009000000001 C 10.047299999999998 28.130140000000008 9.367239999999999 27.92018000000001 9.287289999999999 28.380140000000008 C 8.50738 32.80006000000001 7.747369999999998 37.23012000000001 7.297299999999999 41.70009000000001 C 7.077329999999999 43.83009000000001 7.077329999999999 45.91017000000001 7.447319999999999 48.03005000000001 C 7.677299999999999 49.32009000000001 7.887259999999999 50.54006000000001 7.697319999999999 51.86013000000001 C 7.547299999999999 52.87014000000001 7.237359999999999 53.86013000000001 7.027399999999998 54.86013000000001 C 6.267389999999998 58.56008000000001 7.197319999999999 62.260030000000015 8.907279999999998 65.56008000000001 C 9.807299999999998 67.30007000000002 10.937309999999998 68.92019000000002 12.137259999999998 70.47011000000002 C 13.447319999999998 72.17018000000002 14.767389999999997 73.93019000000002 16.36724 75.38014000000003 C 16.73736 75.72011000000002 17.32732 75.29005000000002 17.07732 74.83009000000003 C 15.20733 71.41016 12.1773 68.7301 10.22735 65.32007 z M 249.95732 52.72009 C 249.85722 54.06006 249.57732000000001 55.3601 249.17729 56.62011 C 248.77739 57.89013 248.24736 59.13012 247.63725 60.350089999999994 C 233.19731 60.850089999999994 207.49736 59.70007 185.75736999999998 58.440059999999995 C 202.48735 60.89013 233.35721999999998 62.58006999999999 246.20731999999998 63.07006 C 244.02738999999997 66.97008 241.51737999999997 70.81005 240.53727999999998 75.12011 C 240.29728999999998 76.16015 240.12724999999998 77.28002 239.44731 78.10009 C 238.8073 78.88011999999999 237.8073 79.27001 236.87724 79.64013 C 234.27739 80.64013 231.48735 81.6101 228.79728 81.40014 L 228.79728 81.44005999999999 C 228.79728 81.44005999999999 169.54728 79.97008999999998 151.16728 77.11009999999999 C 132.77739 74.27000999999998 103.28728000000001 77.25999999999999 79.00738000000001 77.25999999999999 C 54.73736000000001 77.25999999999999 16.757380000000012 81.31004999999999 16.757380000000012 81.31004999999999 L 16.757380000000012 81.30004 C 15.21734 81.53003 13.6773 81.5 12.20733 80.9801 C 8.06732 79.49010999999999 6.117240000000001 74.88011999999999 4.66729 70.74010999999999 C 1.8972700000000002 62.79003999999999 -0.8126899999999999 54.480099999999986 0.22735000000000039 46.12010999999998 C 0.5573100000000004 43.61009999999998 1.2073300000000002 41.140129999999985 1.5973500000000005 38.630119999999984 C 3.1572900000000006 28.820059999999984 0.8373400000000005 18.060049999999983 5.687320000000001 9.420159999999985 C 7.637270000000001 5.970089999999985 10.57734 3.200069999999985 13.45734 0.4901099999999854 C 13.71734 0.26001 14.0274 0 14.36724 0 C 14.39727 0 14.43731 0 14.45733 0.02002 C 14.46697 0.02075 14.52471 0.07422 14.55572 0.10973999999999999 C 15.946340000000001 1.70557 22.17144 9.079220000000001 25.68731 15.61011 C 29.66729 23.01001 32.78729 41.05005 33.84735 46.18018 C 34.89728 51.31006 33.327329999999996 58.75 31.73736 63.18018 C 33.62725 59.8501 36.26739 56.4701 36.5473 52.7201 C 36.76739 49.740120000000005 36.09735 46.75001 35.4273 43.80006 C 35.07732 42.240120000000005 34.70733 40.66017 34.36724 39.10011 L 82.82732 37.37013 L 33.797290000000004 36.66017 C 32.95732 32.95009 32.10723 29.23012 31.267380000000003 25.53004 C 30.617230000000003 22.71009 29.967330000000004 19.87013 28.737350000000003 17.25001 C 28.47734 16.73011 28.217330000000004 16.21009 27.907270000000004 15.70008 C 26.587320000000005 13.27003 24.947310000000005 11.02003 23.187300000000004 8.8501 L 64.11723 6.730099999999999 L 21.47735 6.730099999999999 C 19.83734 4.560059999999999 18.207330000000002 2.140129999999999 16.21734 0.4101499999999989 C 16.06121 0.2613499999999989 15.87738 0.13475999999999888 15.68231 0.06712999999999891 C 15.61505 0.04393999999999891 15.52704 0.00023999999999890775 15.52704 0.00023999999999890775 L 75.80731 0.1501399999999989 L 140.61723 1.75 L 228.79729 0 C 229.12725 0 229.40728000000001 0.19006 229.63726 0.41016 C 232.00738 2.44007 233.81731 5.4701 235.81731 7.88013 C 236.59734 8.81006 237.32732 9.78003 238.06731 10.740120000000001 L 181.00736999999998 15.740120000000001 C 182.02738999999997 15.7201 239.44731 14.92017 240.87723999999997 14.870120000000002 C 241.33731999999998 15.630130000000001 241.76737999999997 16.43018 242.15726999999998 17.25 C 243.39726 19.87012 244.04727999999997 22.710079999999998 244.66727999999998 25.53003 C 245.02738999999997 27.07007 245.38724999999997 28.63013 245.73734999999996 30.18018 C 245.98734999999996 31.26001 246.22733999999997 32.3501 246.46732999999998 33.43018 C 239.47733999999997 34.4701 191.67728999999997 38.11011 161.94730999999996 39.26001 C 127.14726999999996 40.62012 91.39726999999996 41.42017 91.39726999999996 41.42017 C 91.39726999999996 41.42017 160.84733999999997 43.2201 180.59733999999997 42.16016 C 192.54728999999998 41.53003 234.21733999999998 41.12012 248.18730999999997 40.92017 L 248.19731999999996 40.92017 C 248.40727999999996 41.88013 248.62724999999998 42.84009 248.84733999999997 43.80005 C 249.51738 46.75 250.19731 49.74011 249.95732 52.72009 z M 30.20733 44.77002 L 26.03729 26.49011 C 25.4273 23.830080000000002 24.857239999999997 21.31006 23.81732 19.12011 C 22.307309999999998 15.93017 20.057309999999998 13.05004 18.06732 10.66015 C 17.337339999999998 9.78002 16.62726 8.83007 15.9173 7.87011 C 15.35724 7.12011 14.80731 6.380120000000001 14.267399999999999 5.7100800000000005 C 12.397279999999999 7.53003 10.647279999999999 9.45007 9.46735 11.55005 C 6.837339999999999 16.22009 6.727359999999999 22.05005 6.607239999999999 28.22009 C 6.537289999999999 31.84009 6.467349999999999 35.580079999999995 5.887269999999999 39.29004 C 5.69732 40.45007 5.46734 41.6001 5.23736 42.75 C 4.95733 44.11011 4.6973199999999995 45.40015 4.53729 46.66016 C 3.6272599999999997 53.87012 5.9172899999999995 61.18018 8.767389999999999 69.31006 C 9.97735 72.78003 11.41729 76.09008999999999 13.667289999999998 76.90015 C 14.087329999999998 77.05005 14.547289999999998 77.12012 15.077319999999997 77.12012 C 16.777389999999997 77.12012 18.877249999999997 76.37012 20.89727 75.6001 C 21.07732 75.53003 21.39727 75.41015999999999 21.62725 75.30005 C 21.68731 75.09009 21.74737 74.81006 21.79729 74.59009 L 21.89727 74.14014 C 22.857229999999998 69.92017 24.9273 66.33008000000001 26.9273 62.860110000000006 C 28.99737 59.26001000000001 30.95733 55.87012000000001 31.21734 52.39014 C 31.40728 50.02002 30.79729 47.3501 30.20733 44.77002 z M 84.40728 10.5 C 84.40728 10.5 120.36724000000001 11.7301 138.41728 11.88013 C 156.47734 12.04004 182.46733 8.46009 182.46733 8.46009 C 182.46733 8.46009 84.65728 10.42017 84.40728 10.5 z M 83.46734 26.93018 C 84.13726 26.94007 84.81732 26.96009 85.49736999999999 26.98011 C 85.62724999999999 26.98011 85.75737999999998 26.98011 85.87724999999999 26.99012 C 86.76738999999999 27.01002 87.66729 27.03004 88.56730999999999 27.050060000000002 C 89.39787999999999 27.068610000000003 90.2426 27.086930000000002 91.08367 27.105480000000004 C 93.15557 27.152360000000005 95.24907999999999 27.198500000000003 97.35601 27.243420000000004 C 99.69731999999999 27.293960000000006 102.04729 27.342540000000003 104.40728 27.390150000000006 C 105.11724 27.400160000000007 105.82732 27.420180000000006 106.54729 27.430190000000007 C 107.97734 27.460100000000008 109.39727 27.480120000000007 110.81731 27.510020000000008 C 111.50713 27.524670000000008 112.19316 27.53309000000001 112.88164 27.544080000000008 C 114.22893 27.56715000000001 115.5717 27.58937000000001 116.90837 27.61061000000001 C 117.63359 27.623790000000007 118.35954000000001 27.634290000000007 119.07732 27.650160000000007 C 120.51763 27.670180000000006 121.94341 27.688730000000007 123.3604 27.705820000000006 C 124.55425 27.721930000000008 125.73748 27.736580000000007 126.91216 27.750740000000008 C 127.12383 27.75379000000001 127.3355 27.756840000000008 127.54729 27.760020000000008 C 129.46488 27.782110000000007 131.33964 27.80006000000001 133.19108 27.815810000000006 C 134.03495 27.823130000000006 134.87113 27.829730000000005 135.69877 27.835710000000006 C 136.12503999999998 27.838640000000005 136.5496 27.841570000000004 136.97123 27.844130000000007 C 138.07084 27.851090000000006 139.15286999999998 27.856460000000006 140.21867 27.860730000000007 C 140.42411 27.861580000000007 140.63176 27.86256000000001 140.83586 27.863170000000007 C 142.1342 27.867690000000007 143.40715 27.870130000000007 144.64726 27.870130000000007 C 181.91728 27.870130000000007 214.11723 25.790050000000008 214.11723 25.790050000000008 C 214.11723 25.790050000000008 136.39726000000002 26.760020000000008 101.05730000000001 24.570080000000008 C 100.38494000000001 24.52772000000001 99.69561000000002 24.489760000000008 98.99468000000002 24.454850000000008 C 98.94512000000002 24.452410000000008 98.89361000000002 24.450460000000007 98.84405000000001 24.448010000000007 C 98.18756 24.416030000000006 97.51983000000001 24.386730000000007 96.84136000000001 24.360730000000007 C 96.79351000000001 24.358900000000006 96.74419 24.357430000000008 96.69610000000002 24.35573000000001 C 96.01348000000002 24.32997000000001 95.32134000000002 24.307150000000007 94.61920000000002 24.287250000000007 C 94.56647000000002 24.285790000000006 94.51300000000002 24.284560000000006 94.46014000000002 24.283220000000007 C 93.76080000000002 24.263810000000007 93.05328000000003 24.247090000000007 92.33746000000002 24.23317000000001 C 92.27911000000002 24.23195000000001 92.22003000000002 24.231220000000008 92.16156000000002 24.230000000000008 C 91.44489000000003 24.216570000000008 90.72162000000003 24.205590000000008 89.99127000000003 24.19704000000001 C 89.94024000000003 24.19655000000001 89.88873000000002 24.19606000000001 89.83771000000003 24.195580000000007 C 89.10102000000003 24.18728000000001 88.35919000000003 24.181540000000005 87.61127000000003 24.178120000000007 C 87.55768000000003 24.177880000000005 87.50397000000004 24.177750000000007 87.45038000000004 24.177510000000005 C 86.69342000000003 24.174460000000003 85.93244000000004 24.173600000000004 85.16705000000003 24.175070000000005 C 85.13409000000003 24.175070000000005 85.10125000000004 24.175070000000005 85.06842000000003 24.175190000000004 C 84.27924000000003 24.176780000000004 83.48737000000003 24.180680000000006 82.69220000000003 24.186790000000006 C 82.67889000000002 24.186910000000005 82.66547000000003 24.187030000000007 82.65204000000003 24.187160000000006 C 76.93427000000003 24.231720000000006 71.10370000000003 24.384550000000004 65.70734000000003 24.580100000000005 C 65.38922000000004 24.587670000000006 65.06964000000004 24.603290000000005 64.75324000000003 24.617940000000004 C 64.56550000000003 24.625020000000003 64.37824000000003 24.632100000000005 64.19172000000003 24.639300000000006 C 64.08955000000003 24.643080000000005 63.985180000000035 24.644790000000008 63.88728000000003 24.650160000000007 C 63.75898000000003 24.65321000000001 63.63166000000003 24.660780000000006 63.50227000000003 24.665420000000008 C 63.401680000000034 24.66945000000001 63.30207000000003 24.67335000000001 63.201980000000034 24.677260000000008 C 63.00948000000003 24.685560000000006 62.81428000000003 24.69093000000001 62.62727000000003 24.700090000000007 C 62.44819000000003 24.707540000000005 62.27510000000003 24.714860000000005 62.09748000000003 24.722430000000006 C 60.85139000000003 24.773460000000007 59.63801000000003 24.825820000000007 58.46491000000003 24.879170000000006 C 57.559880000000035 24.919450000000005 56.67231000000003 24.959740000000007 55.817330000000034 25.000020000000006 C 55.55732000000003 25.010030000000008 55.30732000000003 25.020040000000005 55.05732000000003 25.040060000000008 C 54.687320000000035 25.060080000000006 54.327340000000035 25.070090000000008 53.96735000000003 25.090110000000006 C 51.90485000000003 25.194360000000007 50.04816000000003 25.298240000000007 48.439400000000035 25.392230000000005 C 47.82673000000003 25.427260000000004 47.24470000000004 25.460960000000004 46.70808000000004 25.492690000000003 C 46.35676000000004 25.513440000000003 46.01960000000004 25.534070000000003 45.70283000000004 25.552990000000005 C 45.64680000000004 25.556410000000003 45.586370000000045 25.560070000000003 45.53132000000004 25.563240000000004 C 45.37251000000004 25.572270000000003 45.21906000000004 25.581180000000003 45.06733000000004 25.590100000000003 C 44.89729000000004 25.600110000000004 44.72736000000004 25.610120000000002 44.56733000000004 25.620130000000003 C 44.20734000000004 25.640150000000002 43.87727000000004 25.670180000000002 43.58735000000004 25.680190000000003 C 43.512770000000046 25.689470000000004 43.431220000000046 25.690570000000005 43.36360000000004 25.698740000000004 C 42.47957000000004 25.755620000000004 41.97737000000004 25.790050000000004 41.97737000000004 25.790050000000004 C 42.006790000000045 25.790050000000004 42.34383000000004 25.801040000000004 42.95344000000004 25.818610000000003 C 43.77400000000004 25.843390000000003 45.09529000000004 25.883550000000003 46.84748000000004 25.935800000000004 C 46.89216000000004 25.937260000000006 46.93220000000004 25.938490000000005 46.97736000000004 25.940070000000006 C 47.27741000000004 25.950080000000007 47.58735000000004 25.960090000000005 47.90729000000004 25.970100000000006 C 48.20733 25.9801 48.51739 25.99011 48.83733 26 L 48.90728 26 C 49.11724 26.01001 49.33733 26.01001 49.56731 26.02002 C 50.41729 26.040039999999998 51.33733 26.070069999999998 52.31731 26.100099999999998 C 52.46196 26.105099999999997 52.61663 26.10767 52.76628 26.11011 C 53.68388 26.13672 54.64848 26.16443 55.66069 26.19336 C 56.51775 26.218629999999997 57.413990000000005 26.2439 58.334030000000006 26.26917 C 59.25298000000001 26.29505 60.204510000000006 26.321659999999998 61.18169 26.34876 C 61.300340000000006 26.352539999999998 61.41631 26.35633 61.53728 26.36011 L 61.59087 26.36011 C 62.43694 26.38355 63.307790000000004 26.407349999999997 64.19329 26.43152 C 64.39800000000001 26.437749999999998 64.60259 26.443849999999998 64.8073 26.45007 C 65.57012 26.47046 66.34648 26.49072 67.1353 26.51111 C 68.6071 26.550539999999998 70.11992000000001 26.5907 71.67436000000001 26.631349999999998 C 72.00444 26.640019999999996 72.33244 26.64868 72.66728 26.660159999999998 C 72.79728 26.660159999999998 72.92729 26.660159999999998 73.04728 26.67017 C 73.45731 26.68018 73.86723 26.69007 74.27738 26.70008 C 74.71036 26.71216 75.15775 26.72217 75.59658999999999 26.73243 C 76.43740999999999 26.75391 77.29043999999999 26.7754 78.14871 26.79688 C 78.43141999999999 26.80542 78.71243 26.814210000000003 78.99734 26.82007 C 80.46734 26.8501 81.95733 26.89014 83.46734 26.93018 z M 145.90727 50.65015 C 145.66728 50.65015 95.76739 49.61011 71.53728000000001 49.61011 C 70.03936000000002 49.61011 68.61272000000001 49.61377 67.24395000000001 49.62158 C 66.91998000000001 49.623290000000004 66.61041000000002 49.625730000000004 66.29351000000001 49.62793 C 66.12957000000002 49.62927 65.95953000000002 49.63001 65.79742000000002 49.63135 C 63.260430000000014 49.650389999999994 60.95648000000001 49.68152 58.866270000000014 49.72132 C 58.660460000000015 49.72486 58.449280000000016 49.72571 58.24737000000002 49.730109999999996 C 58.057310000000015 49.74012 57.857230000000015 49.74012 57.667290000000015 49.74012 C 56.98858000000001 49.755379999999995 56.340510000000016 49.77198 55.70831000000002 49.79176 C 53.45611000000002 49.84974 51.494810000000015 49.917489999999994 49.80914000000002 49.98938999999999 C 49.63995000000002 49.99634999999999 49.46124000000002 50.00317999999999 49.29730000000002 50.01001999999999 C 49.18548000000002 50.01660999999999 49.08136000000002 50.02136999999999 48.97174000000002 50.02649999999999 C 47.722960000000015 50.083749999999995 46.63898000000002 50.14233999999999 45.697330000000015 50.20020999999999 C 45.608460000000015 50.20557999999999 45.520080000000014 50.21106999999999 45.43415000000002 50.216449999999995 C 45.067940000000014 50.23951999999999 44.72468000000001 50.262229999999995 44.40400000000002 50.284569999999995 C 44.32673000000002 50.29031 44.24104000000002 50.29617 44.167310000000015 50.30007 C 44.09419000000001 50.30569 44.033400000000015 50.31057 43.96272000000001 50.31594 C 43.45930000000001 50.35281 43.02009000000001 50.38796 42.634960000000014 50.42104 C 42.19709000000002 50.45742 41.83308000000002 50.49001 41.537300000000016 50.520039999999995 C 41.42731000000001 50.530049999999996 41.327340000000014 50.54006 41.23737000000001 50.55006999999999 C 41.14728000000001 50.56007999999999 41.05732000000001 50.57008999999999 40.98737000000001 50.58009999999999 C 40.877260000000014 50.59010999999999 40.787300000000016 50.60011999999999 40.71735000000001 50.610129999999984 C 40.63092000000001 50.62379999999998 40.57331000000001 50.63221999999998 40.529480000000014 50.63856999999999 C 40.47394000000001 50.64613999999999 40.447330000000015 50.65016999999999 40.447330000000015 50.65016999999999 C 40.447330000000015 50.65016999999999 47.6773 50.5 58.14727 50.57007 C 58.71734 50.57007 59.29729 50.57007 59.88726 50.58008 C 60.50738 50.590090000000004 61.14727 50.590090000000004 61.787279999999996 50.600100000000005 C 62.12725 50.600100000000005 62.46733 50.610110000000006 62.8073 50.610110000000006 C 63.09941 50.610110000000006 63.398849999999996 50.61719000000001 63.69292 50.618900000000004 C 63.975880000000004 50.62281 64.26079 50.626830000000005 64.5468 50.63098 C 64.75347000000001 50.634280000000004 64.95744 50.64014 65.16728 50.64014 C 65.73735 50.650150000000004 66.3173 50.660160000000005 66.89726 50.67017 C 68.06865 50.68934 69.26310000000001 50.71363 70.4727 50.74097 C 70.55754 50.742799999999995 70.64128000000001 50.74451 70.72624 50.74646 C 71.67167 50.76807 72.63457000000001 50.79321 73.59941 50.818599999999996 C 74.69377 50.848259999999996 75.79826 50.88086 76.91215000000001 50.91674 C 77.07548000000001 50.92187 77.24150000000002 50.926989999999996 77.40507000000001 50.932489999999994 C 78.73002000000001 50.976189999999995 80.06620000000001 51.024409999999996 81.40946000000001 51.07787999999999 C 81.51395000000001 51.082029999999996 81.61832000000001 51.08642 81.72281000000001 51.090579999999996 C 83.07938000000001 51.14527 84.44205000000001 51.204589999999996 85.80728 51.270019999999995 C 99.9273 51.95007 145.90727 50.65015 145.90727 50.65015 z M 27.34734 42.17017 C 27.65728 44.81006 27.76738 47.32007 27.26738 49.95008 C 26.78728 52.49012 26.04729 54.980109999999996 25.56731 57.52003 C 25.07732 60.10011 24.357229999999998 62.49012 23.02739 64.77002999999999 C 21.84734 66.80005999999999 19.92729 68.64014999999999 19.17729 70.87012999999999 C 19.14726 70.97010999999999 19.257369999999998 71.01001999999998 19.32731 70.96009999999998 C 20.29728 70.17017999999999 20.91728 69.07008999999998 21.60722 68.04005999999998 C 22.35722 66.93019999999999 23.147260000000003 65.84010999999998 23.897260000000003 64.73011999999999 C 25.467330000000004 62.390149999999984 26.067300000000003 60.04005999999998 26.597330000000003 57.300069999999984 C 27.497350000000004 52.630149999999986 30.497350000000004 46.610129999999984 27.787270000000003 42.050069999999984 C 27.6773 41.87012 27.31731 41.93018 27.34734 42.17017 z M 9.78728 23.38013 C 10.62725 21.54004 11.057300000000001 19.53003 11.78728 17.640140000000002 C 12.15728 16.680180000000004 12.587330000000001 15.730110000000003 13.04729 14.810060000000002 C 13.41729 14.080080000000002 13.83733 12.930180000000002 14.57732 12.490110000000001 C 15.52739 11.930170000000002 16.34734 13.230100000000002 16.85723 13.860110000000002 C 17.517390000000002 14.670170000000002 18.16729 15.500000000000002 18.79729 16.3501 C 20.00737 17.99011 20.96733 19.8501 22.31731 21.38013 C 22.43731 21.51001 22.65728 21.37012 22.607229999999998 21.220100000000002 C 21.947319999999998 18.99012 20.39727 16.980110000000003 19.03728 15.130130000000001 C 18.34734 14.180180000000002 17.62725 13.200080000000002 16.807299999999998 12.36011 C 16.217329999999997 11.740110000000001 15.417289999999998 11.240110000000001 14.537279999999997 11.510010000000001 C 13.687299999999997 11.760010000000001 13.167279999999998 12.58008 12.757369999999998 13.30005 C 12.137249999999998 14.36011 11.577319999999999 15.47009 11.087329999999998 16.59009 C 10.177299999999997 18.67017 9.257369999999998 20.95008 9.327319999999999 23.26001 C 9.32732 23.4801 9.6773 23.62012 9.78728 23.38013 z M 14.0573 29.84009 C 14.287279999999999 28.56006 14.29729 27.31006 14.4373 26.02002 C 14.44732 25.93018 14.29729 25.92017 14.2774 26 C 13.85723 27.39014 13.35723 28.69006 13.03729 30.11011 C 12.757380000000001 31.33008 12.48736 32.55005 12.227350000000001 33.78003 C 11.777400000000002 35.93017999999999 10.997370000000002 38.25 11.247370000000002 40.47009 C 11.517390000000002 42.87011 12.167290000000001 45.22009 12.457330000000002 47.63012 C 12.767390000000002 50.2301 12.717340000000002 52.850089999999994 12.967340000000002 55.45007 C 12.977350000000001 55.65013999999999 13.307310000000001 55.740109999999994 13.347340000000003 55.5 C 14.217340000000002 50.86011 13.487350000000003 45.74011 12.557300000000003 41.16016 C 12.047290000000004 38.640139999999995 12.887260000000003 36.020019999999995 13.367240000000002 33.54004 C 13.60723 32.31006 13.83733 31.07007 14.0573 29.84009 z" stroke-linecap="round" />
</g>
</g>
</g>
</g>
</g>
</svg>